<?xml version="1.0" standalone="no"?>
<!DOCTYPE svg PUBLIC "-//W3C//DTD SVG 20010904//EN"
 "http://www.w3.org/TR/2001/REC-SVG-20010904/DTD/svg10.dtd">
<svg version="1.0" xmlns="http://www.w3.org/2000/svg"
 width="100.000000pt" height="100.000000pt" viewBox="0 0 100.000000 100.000000"
 preserveAspectRatio="xMidYMid meet">

<g transform="translate(0.000000,100.000000) scale(0.100000,-0.100000)"
fill="#000000" stroke="none">
<path d="M142 914 c-12 -8 -22 -21 -22 -29 0 -7 -16 -36 -35 -65 -45 -67 -50
-90 -31 -132 9 -18 95 -136 191 -262 96 -126 175 -235 175 -242 0 -6 15 -31
34 -53 l35 -41 26 34 c22 29 31 34 55 30 26 -6 38 6 166 155 77 89 141 169
142 177 2 8 -19 46 -47 85 -28 38 -51 72 -51 74 0 3 23 5 51 5 28 0 59 5 71
11 23 12 39 2 18 -11 -11 -7 -11 -10 -2 -10 19 0 27 31 11 41 -8 5 -53 9 -100
9 l-86 0 -27 38 c-45 65 -31 134 34 167 76 39 154 -3 181 -98 15 -52 -21 -88
-51 -52 -10 12 -10 21 -1 41 10 23 10 26 -4 20 -9 -3 -19 -6 -21 -6 -2 0 -4
-14 -4 -30 0 -22 6 -33 24 -41 29 -14 75 -4 83 16 18 49 -40 145 -104 171 -73
31 -169 7 -204 -50 -23 -37 -24 -100 -4 -140 8 -15 15 -30 15 -32 0 -2 -40 -4
-90 -4 l-89 0 -3 -132 -3 -133 -63 82 c-34 45 -70 86 -79 91 -14 8 -9 18 34
68 28 33 56 69 62 81 15 29 13 73 -4 103 l-14 25 -1 -27 c0 -29 -30 -68 -52
-68 -7 0 -4 -7 7 -16 19 -15 17 -18 -68 -100 -48 -47 -92 -82 -98 -79 -29 19
-89 109 -89 136 0 47 26 99 49 99 18 0 19 3 9 26 -10 20 -9 30 6 55 20 34 6
40 -32 13z m566 -282 c2 -7 0 -12 -5 -11 -22 4 -53 -2 -53 -10 0 -5 9 -19 19
-32 20 -24 20 -24 18 -2 0 12 -5 19 -9 17 -4 -3 -8 -1 -8 4 0 6 7 13 16 16 11
4 18 -1 21 -14 6 -23 23 -27 23 -5 0 8 9 15 20 15 22 0 27 -16 8 -22 -7 -3 2
-23 25 -52 35 -47 36 -49 19 -70 -65 -82 -226 -266 -232 -266 -4 0 -10 7 -14
15 -6 17 -37 20 -53 4 -8 -8 -18 -5 -37 12 -37 32 -226 284 -226 302 0 22 26
40 44 30 8 -4 65 -69 126 -143 62 -74 119 -139 127 -144 20 -11 67 10 57 26
-4 6 -3 9 2 5 5 -3 18 1 28 9 18 13 18 14 -9 24 -20 7 -31 8 -39 0 -5 -5 -15
-10 -20 -10 -6 0 -4 5 4 10 9 6 10 10 3 10 -7 0 -13 29 -17 83 -3 45 -8 106
-11 135 -10 81 -8 83 87 80 55 -2 83 -7 86 -16z m-151 -344 c-3 -8 -6 -5 -6 6
-1 11 2 17 5 13 3 -3 4 -12 1 -19z"/>
<path d="M590 582 c0 -22 39 -71 70 -87 45 -23 49 -18 7 10 -20 14 -37 29 -37
33 -1 14 -40 57 -40 44z"/>
<path d="M480 730 c0 -15 7 -20 25 -20 18 0 25 5 25 20 0 15 -7 20 -25 20 -18
0 -25 -5 -25 -20z"/>
</g>
</svg>
